<svg width="35" height="35" viewBox="0 0 35 35" fill="none" xmlns="http://www.w3.org/2000/svg">
<path d="M17.5 35C27.165 35 35 27.165 35 17.5C35 7.83502 27.165 0 17.5 0C7.83502 0 0 7.83502 0 17.5C0 27.165 7.83502 35 17.5 35Z" fill="#0B0C0C"/>
<path fill-rule="evenodd" clip-rule="evenodd" d="M15.2995 7.36914H19.6715L19.2964 21.0623H15.6891L15.2995 7.36914ZM14.7368 25.5786C14.7368 25.2034 14.809 24.8499 14.9533 24.518C15.0975 24.1862 15.2971 23.8952 15.5521 23.6451C15.807 23.395 16.1028 23.1978 16.4394 23.0535C16.7761 22.9092 17.1368 22.8371 17.5216 22.8371C17.8968 22.8371 18.2503 22.9092 18.5821 23.0535C18.914 23.1978 19.205 23.395 19.4551 23.6451C19.7052 23.8952 19.9024 24.1862 20.0467 24.518C20.191 24.8499 20.2631 25.2034 20.2631 25.5786C20.2631 25.9633 20.191 26.3241 20.0467 26.6607C19.9024 26.9974 19.7052 27.2908 19.4551 27.5409C19.205 27.791 18.914 27.9882 18.5821 28.1325C18.2503 28.2768 17.8968 28.3489 17.5216 28.3489C17.1368 28.3489 16.7761 28.2768 16.4394 28.1325C16.1028 27.9882 15.807 27.791 15.5521 27.5409C15.2971 27.2908 15.0975 26.9974 14.9533 26.6607C14.809 26.3241 14.7368 25.9633 14.7368 25.5786Z" fill="white"/>
</svg>
